<svg version="1.1" xmlns="http://www.w3.org/2000/svg" xmlns:xlink="http://www.w3.org/1999/xlink" width="772" height="668"><defs></defs><g><g transform="translate(-318,-30) scale(1,1)"><rect fill="#C0C0C0" stroke="none" x="335" y="47" width="72" height="39" opacity="0.2"></rect></g><g transform="translate(-318,-30) scale(1,1)"><rect fill="#ffffff" stroke="none" x="328" y="40" width="72" height="39"></rect></g><g transform="translate(-318,-30) scale(1,1)"><path fill="none" stroke="#000000" d="M 328 40 L 400 40 L 400 79 L 328 79 L 328 40 Z Z" stroke-miterlimit="10"></path></g><g transform="translate(-318,-30) scale(1,1)"><g><path fill="none" stroke="none"></path><text fill="#000000" stroke="none" font-family="Arial" font-size="13px" font-style="normal" font-weight="bold" text-decoration="none" x="344" y="59.5">Builder</text></g></g><g transform="translate(-318,-30) scale(1,1)"><path fill="none" stroke="#000000" d="M 365.5 80 L 365.5 664" stroke-miterlimit="10" stroke-dasharray="3"></path></g><g transform="translate(-318,-30) scale(1,1)"><rect fill="#C0C0C0" stroke="none" x="479" y="47" width="72" height="39" opacity="0.2"></rect></g><g transform="translate(-318,-30) scale(1,1)"><rect fill="#ffffff" stroke="none" x="472" y="40" width="72" height="39"></rect></g><g transform="translate(-318,-30) scale(1,1)"><path fill="none" stroke="#000000" d="M 472 40 L 544 40 L 544 79 L 472 79 L 472 40 Z Z" stroke-miterlimit="10"></path></g><g transform="translate(-318,-30) scale(1,1)"><g><path fill="none" stroke="none"></path><text fill="#000000" stroke="none" font-family="Arial" font-size="13px" font-style="normal" font-weight="bold" text-decoration="none" x="487.5" y="59.5">Artisan</text></g></g><g transform="translate(-318,-30) scale(1,1)"><path fill="none" stroke="#000000" d="M 509.5 80 L 509.5 664" stroke-miterlimit="10" stroke-dasharray="3"></path></g><g transform="translate(-318,-30) scale(1,1)"><rect fill="#C0C0C0" stroke="none" x="607" y="47" width="75" height="39" opacity="0.2"></rect></g><g transform="translate(-318,-30) scale(1,1)"><rect fill="#ffffff" stroke="none" x="600" y="40" width="75" height="39"></rect></g><g transform="translate(-318,-30) scale(1,1)"><path fill="none" stroke="#000000" d="M 600 40 L 675 40 L 675 79 L 600 79 L 600 40 Z Z" stroke-miterlimit="10"></path></g><g transform="translate(-318,-30) scale(1,1)"><g><path fill="none" stroke="none"></path><text fill="#000000" stroke="none" font-family="Arial" font-size="13px" font-style="normal" font-weight="bold" text-decoration="none" x="612" y="59.5">Collector</text></g></g><g transform="translate(-318,-30) scale(1,1)"><path fill="none" stroke="#000000" d="M 638.5 80 L 638.5 672" stroke-miterlimit="10" stroke-dasharray="3"></path></g><g transform="translate(-318,-30) scale(1,1)"><rect fill="#C0C0C0" stroke="none" x="759" y="47" width="72" height="39" opacity="0.2"></rect></g><g transform="translate(-318,-30) scale(1,1)"><rect fill="#ffffff" stroke="none" x="752" y="40" width="72" height="39"></rect></g><g transform="translate(-318,-30) scale(1,1)"><path fill="none" stroke="#000000" d="M 752 40 L 824 40 L 824 79 L 752 79 L 752 40 Z Z" stroke-miterlimit="10"></path></g><g transform="translate(-318,-30) scale(1,1)"><g><path fill="none" stroke="none"></path><text fill="#000000" stroke="none" font-family="Arial" font-size="13px" font-style="normal" font-weight="bold" text-decoration="none" x="771.5" y="59.5">Wood</text></g></g><g transform="translate(-318,-30) scale(1,1)"><path fill="none" stroke="#000000" d="M 789.5 80 L 789.5 680" stroke-miterlimit="10" stroke-dasharray="3"></path></g><g transform="translate(-318,-30) scale(1,1)"><rect fill="#C0C0C0" stroke="none" x="895" y="47" width="72" height="39" opacity="0.2"></rect></g><g transform="translate(-318,-30) scale(1,1)"><rect fill="#ffffff" stroke="none" x="888" y="40" width="72" height="39"></rect></g><g transform="translate(-318,-30) scale(1,1)"><path fill="none" stroke="#000000" d="M 888 40 L 960 40 L 960 79 L 888 79 L 888 40 Z Z" stroke-miterlimit="10"></path></g><g transform="translate(-318,-30) scale(1,1)"><g><path fill="none" stroke="none"></path><text fill="#000000" stroke="none" font-family="Arial" font-size="13px" font-style="normal" font-weight="bold" text-decoration="none" x="913" y="59.5">Iron</text></g></g><g transform="translate(-318,-30) scale(1,1)"><path fill="none" stroke="#000000" d="M 925.5 80 L 925.5 688" stroke-miterlimit="10" stroke-dasharray="3"></path></g><g transform="translate(-318,-30) scale(1,1)"><rect fill="#C0C0C0" stroke="none" x="1015" y="47" width="72" height="39" opacity="0.2"></rect></g><g transform="translate(-318,-30) scale(1,1)"><rect fill="#ffffff" stroke="none" x="1008" y="40" width="72" height="39"></rect></g><g transform="translate(-318,-30) scale(1,1)"><path fill="none" stroke="#000000" d="M 1008 40 L 1080 40 L 1080 79 L 1008 79 L 1008 40 Z Z" stroke-miterlimit="10"></path></g><g transform="translate(-318,-30) scale(1,1)"><g><path fill="none" stroke="none"></path><text fill="#000000" stroke="none" font-family="Arial" font-size="13px" font-style="normal" font-weight="bold" text-decoration="none" x="1025.5" y="59.5">House</text></g></g><g transform="translate(-318,-30) scale(1,1)"><path fill="none" stroke="#000000" d="M 1045.5 80 L 1045.5 680" stroke-miterlimit="10" stroke-dasharray="3"></path></g><g transform="translate(-318,-30) scale(1,1)"><path fill="none" stroke="#000000" d="M 365 136 L 502 136" stroke-miterlimit="10"></path></g><g transform="translate(-318,-30) scale(1,1)"><path fill="#000000" stroke="none" d="M 491.83732514237585 140.209517756016 L 502 136 L 491.83732514237585 131.790482243984"></path></g><g transform="translate(-318,-30) scale(1,1)"><path fill="none" stroke="#000000" d="M 491.83732514237585 140.209517756016 L 502 136 L 491.83732514237585 131.790482243984 L 491.83732514237585 140.209517756016" stroke-miterlimit="10"></path></g><g transform="translate(-318,-30) scale(1,1)"><g><path fill="none" stroke="none"></path><text fill="#000000" stroke="none" font-family="Arial" font-size="13px" font-style="normal" font-weight="normal" text-decoration="none" x="379.5" y="132.5">1 : ToolsObjective</text></g></g><g transform="translate(-318,-30) scale(1,1)"><rect fill="#ffffff" stroke="none" x="502" y="136" width="13" height="28"></rect></g><g transform="translate(-318,-30) scale(1,1)"><path fill="none" stroke="#000000" d="M 502 136 L 515 136 L 515 164 L 502 164 L 502 136 Z Z" stroke-miterlimit="10"></path></g><g transform="translate(-318,-30) scale(1,1)"><path fill="none" stroke="#000000" d="M 509 184 L 631 184" stroke-miterlimit="10"></path></g><g transform="translate(-318,-30) scale(1,1)"><path fill="#000000" stroke="none" d="M 620.8373251423759 188.209517756016 L 631 184 L 620.8373251423758 179.790482243984"></path></g><g transform="translate(-318,-30) scale(1,1)"><path fill="none" stroke="#000000" d="M 620.8373251423759 188.209517756016 L 631 184 L 620.8373251423758 179.790482243984 L 620.8373251423759 188.209517756016" stroke-miterlimit="10"></path></g><g transform="translate(-318,-30) scale(1,1)"><g><path fill="none" stroke="none"></path><text fill="#000000" stroke="none" font-family="Arial" font-size="13px" font-style="normal" font-weight="normal" text-decoration="none" x="512.5" y="180.5">2 : CollectObjective</text></g></g><g transform="translate(-318,-30) scale(1,1)"><rect fill="#ffffff" stroke="none" x="631" y="184" width="13" height="28"></rect></g><g transform="translate(-318,-30) scale(1,1)"><path fill="none" stroke="#000000" d="M 631 184 L 644 184 L 644 212 L 631 212 L 631 184 Z Z" stroke-miterlimit="10"></path></g><g transform="translate(-318,-30) scale(1,1)"><path fill="none" stroke="#000000" d="M 638 232 L 782 232" stroke-miterlimit="10"></path></g><g transform="translate(-318,-30) scale(1,1)"><path fill="#000000" stroke="none" d="M 771.8373251423759 236.209517756016 L 782 232 L 771.8373251423758 227.790482243984"></path></g><g transform="translate(-318,-30) scale(1,1)"><path fill="none" stroke="#000000" d="M 771.8373251423759 236.209517756016 L 782 232 L 771.8373251423758 227.790482243984 L 771.8373251423759 236.209517756016" stroke-miterlimit="10"></path></g><g transform="translate(-318,-30) scale(1,1)"><g><path fill="none" stroke="none"></path><text fill="#000000" stroke="none" font-family="Arial" font-size="13px" font-style="normal" font-weight="normal" text-decoration="none" x="663.5" y="228.5">3 : CollectWood</text></g></g><g transform="translate(-318,-30) scale(1,1)"><rect fill="#ffffff" stroke="none" x="782" y="232" width="13" height="28"></rect></g><g transform="translate(-318,-30) scale(1,1)"><path fill="none" stroke="#000000" d="M 782 232 L 795 232 L 795 260 L 782 260 L 782 232 Z Z" stroke-miterlimit="10"></path></g><g transform="translate(-318,-30) scale(1,1)"><path fill="none" stroke="#000000" d="M 789 261 L 644 261" stroke-miterlimit="10"></path></g><g transform="translate(-318,-30) scale(1,1)"><path fill="#000000" stroke="none" d="M 654.1626748576241 256.790482243984 L 644 261 L 654.1626748576241 265.209517756016"></path></g><g transform="translate(-318,-30) scale(1,1)"><path fill="none" stroke="#000000" d="M 654.1626748576241 256.790482243984 L 644 261 L 654.1626748576241 265.209517756016 L 654.1626748576241 256.790482243984" stroke-miterlimit="10"></path></g><g transform="translate(-318,-30) scale(1,1)"><g><path fill="none" stroke="none"></path><text fill="#000000" stroke="none" font-family="Arial" font-size="13px" font-style="normal" font-weight="normal" text-decoration="none" x="665.5" y="277.5">4 : ReceiveWood</text></g></g><g transform="translate(-318,-30) scale(1,1)"><rect fill="#ffffff" stroke="none" x="631" y="261" width="13" height="28"></rect></g><g transform="translate(-318,-30) scale(1,1)"><path fill="none" stroke="#000000" d="M 631 261 L 644 261 L 644 289 L 631 289 L 631 261 Z Z" stroke-miterlimit="10"></path></g><g transform="translate(-318,-30) scale(1,1)"><path fill="none" stroke="#000000" d="M 638 328 L 918 328" stroke-miterlimit="10"></path></g><g transform="translate(-318,-30) scale(1,1)"><path fill="#000000" stroke="none" d="M 907.8373251423759 332.209517756016 L 918 328 L 907.8373251423758 323.790482243984"></path></g><g transform="translate(-318,-30) scale(1,1)"><path fill="none" stroke="#000000" d="M 907.8373251423759 332.209517756016 L 918 328 L 907.8373251423758 323.790482243984 L 907.8373251423759 332.209517756016" stroke-miterlimit="10"></path></g><g transform="translate(-318,-30) scale(1,1)"><g><path fill="none" stroke="none"></path><text fill="#000000" stroke="none" font-family="Arial" font-size="13px" font-style="normal" font-weight="normal" text-decoration="none" x="737.5" y="324.5">5 : CollectIron</text></g></g><g transform="translate(-318,-30) scale(1,1)"><rect fill="#ffffff" stroke="none" x="918" y="328" width="13" height="28"></rect></g><g transform="translate(-318,-30) scale(1,1)"><path fill="none" stroke="#000000" d="M 918 328 L 931 328 L 931 356 L 918 356 L 918 328 Z Z" stroke-miterlimit="10"></path></g><g transform="translate(-318,-30) scale(1,1)"><path fill="none" stroke="#000000" d="M 918 352 L 644 352" stroke-miterlimit="10"></path></g><g transform="translate(-318,-30) scale(1,1)"><path fill="#000000" stroke="none" d="M 654.1626748576241 347.790482243984 L 644 352 L 654.1626748576241 356.209517756016"></path></g><g transform="translate(-318,-30) scale(1,1)"><path fill="none" stroke="#000000" d="M 654.1626748576241 347.790482243984 L 644 352 L 654.1626748576241 356.209517756016 L 654.1626748576241 347.790482243984" stroke-miterlimit="10"></path></g><g transform="translate(-318,-30) scale(1,1)"><g><path fill="none" stroke="none"></path><text fill="#000000" stroke="none" font-family="Arial" font-size="13px" font-style="normal" font-weight="normal" text-decoration="none" x="735.5" y="368.5">6 : ReceiveIron</text></g></g><g transform="translate(-318,-30) scale(1,1)"><rect fill="#ffffff" stroke="none" x="631" y="352" width="13" height="28"></rect></g><g transform="translate(-318,-30) scale(1,1)"><path fill="none" stroke="#000000" d="M 631 352 L 644 352 L 644 380 L 631 380 L 631 352 Z Z" stroke-miterlimit="10"></path></g><g transform="translate(-318,-30) scale(1,1)"><path fill="none" stroke="#000000" d="M 638 422 L 515 422" stroke-miterlimit="10"></path></g><g transform="translate(-318,-30) scale(1,1)"><path fill="#000000" stroke="none" d="M 525.1626748576241 417.790482243984 L 515 422 L 525.1626748576241 426.209517756016"></path></g><g transform="translate(-318,-30) scale(1,1)"><path fill="none" stroke="#000000" d="M 525.1626748576241 417.790482243984 L 515 422 L 525.1626748576241 426.209517756016 L 525.1626748576241 417.790482243984" stroke-miterlimit="10"></path></g><g transform="translate(-318,-30) scale(1,1)"><g><path fill="none" stroke="none"></path><text fill="#000000" stroke="none" font-family="Arial" font-size="13px" font-style="normal" font-weight="normal" text-decoration="none" x="520.5" y="438.5">7 : GiveResources</text></g></g><g transform="translate(-318,-30) scale(1,1)"><rect fill="#ffffff" stroke="none" x="502" y="422" width="13" height="28"></rect></g><g transform="translate(-318,-30) scale(1,1)"><path fill="none" stroke="#000000" d="M 502 422 L 515 422 L 515 450 L 502 450 L 502 422 Z Z" stroke-miterlimit="10"></path></g><g transform="translate(-318,-30) scale(1,1)"><path fill="none" stroke="#000000" d="M 509 497 L 371 497" stroke-miterlimit="10"></path></g><g transform="translate(-318,-30) scale(1,1)"><path fill="#000000" stroke="none" d="M 381.16267485762415 492.790482243984 L 371 497 L 381.16267485762415 501.209517756016"></path></g><g transform="translate(-318,-30) scale(1,1)"><path fill="none" stroke="#000000" d="M 381.16267485762415 492.790482243984 L 371 497 L 381.16267485762415 501.209517756016 L 381.16267485762415 492.790482243984" stroke-miterlimit="10"></path></g><g transform="translate(-318,-30) scale(1,1)"><g><path fill="none" stroke="none"></path><text fill="#000000" stroke="none" font-family="Arial" font-size="13px" font-style="normal" font-weight="normal" text-decoration="none" x="400" y="513.5">8 : GiveTools</text></g></g><g transform="translate(-318,-30) scale(1,1)"><rect fill="#ffffff" stroke="none" x="358" y="497" width="13" height="28"></rect></g><g transform="translate(-318,-30) scale(1,1)"><path fill="none" stroke="#000000" d="M 358 497 L 371 497 L 371 525 L 358 525 L 358 497 Z Z" stroke-miterlimit="10"></path></g><g transform="translate(-318,-30) scale(1,1)"><path fill="none" stroke="#000000" d="M 365 600 L 1038 600" stroke-miterlimit="10"></path></g><g transform="translate(-318,-30) scale(1,1)"><path fill="#000000" stroke="none" d="M 1027.837325142376 604.209517756016 L 1038 600 L 1027.837325142376 595.790482243984"></path></g><g transform="translate(-318,-30) scale(1,1)"><path fill="none" stroke="#000000" d="M 1027.837325142376 604.209517756016 L 1038 600 L 1027.837325142376 595.790482243984 L 1027.837325142376 604.209517756016" stroke-miterlimit="10"></path></g><g transform="translate(-318,-30) scale(1,1)"><g><path fill="none" stroke="none"></path><text fill="#000000" stroke="none" font-family="Arial" font-size="13px" font-style="normal" font-weight="normal" text-decoration="none" x="654" y="596.5">9 : CreateHouse</text></g></g><g transform="translate(-318,-30) scale(1,1)"><rect fill="#ffffff" stroke="none" x="1038" y="600" width="13" height="28"></rect></g><g transform="translate(-318,-30) scale(1,1)"><path fill="none" stroke="#000000" d="M 1038 600 L 1051 600 L 1051 628 L 1038 628 L 1038 600 Z Z" stroke-miterlimit="10"></path></g></g></svg>