<svg version="1.1" xmlns="http://www.w3.org/2000/svg" xmlns:xlink="http://www.w3.org/1999/xlink" width="524" height="476"><defs></defs><g><g transform="translate(-358,-30) scale(1,1)"><rect fill="#C0C0C0" stroke="none" x="375" y="47" width="72" height="39" opacity="0.2"></rect></g><g transform="translate(-358,-30) scale(1,1)"><rect fill="#ffffff" stroke="none" x="368" y="40" width="72" height="39"></rect></g><g transform="translate(-358,-30) scale(1,1)"><path fill="none" stroke="#000000" d="M 368 40 L 440 40 L 440 79 L 368 79 L 368 40 Z Z" stroke-miterlimit="10"></path></g><g transform="translate(-358,-30) scale(1,1)"><g><path fill="none" stroke="none"></path><text fill="#000000" stroke="none" font-family="Arial" font-size="13px" font-style="normal" font-weight="bold" text-decoration="none" x="384" y="59.5">Builder</text></g></g><g transform="translate(-358,-30) scale(1,1)"><path fill="none" stroke="#000000" d="M 405.5 80 L 405.5 496" stroke-miterlimit="10" stroke-dasharray="3"></path></g><g transform="translate(-358,-30) scale(1,1)"><rect fill="#C0C0C0" stroke="none" x="807" y="47" width="72" height="39" opacity="0.2"></rect></g><g transform="translate(-358,-30) scale(1,1)"><rect fill="#ffffff" stroke="none" x="800" y="40" width="72" height="39"></rect></g><g transform="translate(-358,-30) scale(1,1)"><path fill="none" stroke="#000000" d="M 800 40 L 872 40 L 872 79 L 800 79 L 800 40 Z Z" stroke-miterlimit="10"></path></g><g transform="translate(-358,-30) scale(1,1)"><g><path fill="none" stroke="none"></path><text fill="#000000" stroke="none" font-family="Arial" font-size="13px" font-style="normal" font-weight="bold" text-decoration="none" x="817.5" y="59.5">House</text></g></g><g transform="translate(-358,-30) scale(1,1)"><path fill="none" stroke="#000000" d="M 837.5 80 L 837.5 496" stroke-miterlimit="10" stroke-dasharray="3"></path></g><g transform="translate(-358,-30) scale(1,1)"><rect fill="#C0C0C0" stroke="none" x="631" y="47" width="72" height="39" opacity="0.2"></rect></g><g transform="translate(-358,-30) scale(1,1)"><rect fill="#ffffff" stroke="none" x="624" y="40" width="72" height="39"></rect></g><g transform="translate(-358,-30) scale(1,1)"><path fill="none" stroke="#000000" d="M 624 40 L 696 40 L 696 79 L 624 79 L 624 40 Z Z" stroke-miterlimit="10"></path></g><g transform="translate(-358,-30) scale(1,1)"><g><path fill="none" stroke="none"></path><text fill="#000000" stroke="none" font-family="Arial" font-size="13px" font-style="normal" font-weight="bold" text-decoration="none" x="647.5" y="59.5">Map</text></g></g><g transform="translate(-358,-30) scale(1,1)"><path fill="none" stroke="#000000" d="M 661.5 80 L 661.5 496" stroke-miterlimit="10" stroke-dasharray="3"></path></g><g transform="translate(-358,-30) scale(1,1)"><path fill="none" stroke="#000000" d="M 405 96 L 435 96 L 435 116 L 411 116" stroke-miterlimit="10"></path></g><g transform="translate(-358,-30) scale(1,1)"><path fill="#000000" stroke="none" d="M 421.16267485762415 111.79048224398402 L 411 116 L 421.16267485762415 120.20951775601598"></path></g><g transform="translate(-358,-30) scale(1,1)"><path fill="none" stroke="#000000" d="M 421.16267485762415 111.79048224398402 L 411 116 L 421.16267485762415 120.20951775601598 L 421.16267485762415 111.79048224398402" stroke-miterlimit="10"></path></g><g transform="translate(-358,-30) scale(1,1)"><g><path fill="none" stroke="none"></path><text fill="#000000" stroke="none" font-family="Arial" font-size="13px" font-style="normal" font-weight="normal" text-decoration="none" x="438.5" y="111.5">1 : CheckTools</text></g></g><g transform="translate(-358,-30) scale(1,1)"><rect fill="#ffffff" stroke="none" x="398" y="116" width="13" height="28"></rect></g><g transform="translate(-358,-30) scale(1,1)"><path fill="none" stroke="#000000" d="M 398 116 L 411 116 L 411 144 L 398 144 L 398 116 Z Z" stroke-miterlimit="10"></path></g><g transform="translate(-358,-30) scale(1,1)"><path fill="none" stroke="#000000" d="M 405 152 L 654 152" stroke-miterlimit="10"></path></g><g transform="translate(-358,-30) scale(1,1)"><path fill="#000000" stroke="none" d="M 643.8373251423759 156.209517756016 L 654 152 L 643.8373251423758 147.790482243984"></path></g><g transform="translate(-358,-30) scale(1,1)"><path fill="none" stroke="#000000" d="M 643.8373251423759 156.209517756016 L 654 152 L 643.8373251423758 147.790482243984 L 643.8373251423759 156.209517756016" stroke-miterlimit="10"></path></g><g transform="translate(-358,-30) scale(1,1)"><g><path fill="none" stroke="none"></path><text fill="#000000" stroke="none" font-family="Arial" font-size="13px" font-style="normal" font-weight="normal" text-decoration="none" x="488.5" y="148.5">2 : CheckMap</text></g></g><g transform="translate(-358,-30) scale(1,1)"><rect fill="#ffffff" stroke="none" x="654" y="152" width="13" height="28"></rect></g><g transform="translate(-358,-30) scale(1,1)"><path fill="none" stroke="#000000" d="M 654 152 L 667 152 L 667 180 L 654 180 L 654 152 Z Z" stroke-miterlimit="10"></path></g><g transform="translate(-358,-30) scale(1,1)"><path fill="none" stroke="#000000" d="M 654 176 L 411 176" stroke-miterlimit="10"></path></g><g transform="translate(-358,-30) scale(1,1)"><path fill="#000000" stroke="none" d="M 421.16267485762415 171.790482243984 L 411 176 L 421.16267485762415 180.209517756016"></path></g><g transform="translate(-358,-30) scale(1,1)"><path fill="none" stroke="#000000" d="M 421.16267485762415 171.790482243984 L 411 176 L 421.16267485762415 180.209517756016 L 421.16267485762415 171.790482243984" stroke-miterlimit="10"></path></g><g transform="translate(-358,-30) scale(1,1)"><g><path fill="none" stroke="none"></path><text fill="#000000" stroke="none" font-family="Arial" font-size="13px" font-style="normal" font-weight="normal" text-decoration="none" x="479.5" y="192.5">3 : MapNotEmpty</text></g></g><g transform="translate(-358,-30) scale(1,1)"><rect fill="#ffffff" stroke="none" x="398" y="176" width="13" height="28"></rect></g><g transform="translate(-358,-30) scale(1,1)"><path fill="none" stroke="#000000" d="M 398 176 L 411 176 L 411 204 L 398 204 L 398 176 Z Z" stroke-miterlimit="10"></path></g><g transform="translate(-358,-30) scale(1,1)"><path fill="none" stroke="#000000" d="M 405 214 L 654 214" stroke-miterlimit="10"></path></g><g transform="translate(-358,-30) scale(1,1)"><path fill="#000000" stroke="none" d="M 643.8373251423759 218.209517756016 L 654 214 L 643.8373251423758 209.790482243984"></path></g><g transform="translate(-358,-30) scale(1,1)"><path fill="none" stroke="#000000" d="M 643.8373251423759 218.209517756016 L 654 214 L 643.8373251423758 209.790482243984 L 643.8373251423759 218.209517756016" stroke-miterlimit="10"></path></g><g transform="translate(-358,-30) scale(1,1)"><g><path fill="none" stroke="none"></path><text fill="#000000" stroke="none" font-family="Arial" font-size="13px" font-style="normal" font-weight="normal" text-decoration="none" x="501.5" y="236.5">4 : Move</text></g></g><g transform="translate(-358,-30) scale(1,1)"><rect fill="#ffffff" stroke="none" x="654" y="214" width="13" height="28"></rect></g><g transform="translate(-358,-30) scale(1,1)"><path fill="none" stroke="#000000" d="M 654 214 L 667 214 L 667 242 L 654 242 L 654 214 Z Z" stroke-miterlimit="10"></path></g><g transform="translate(-358,-30) scale(1,1)"><path fill="none" stroke="#000000" d="M 405 288 L 654 288" stroke-miterlimit="10"></path></g><g transform="translate(-358,-30) scale(1,1)"><path fill="#000000" stroke="none" d="M 643.8373251423759 292.209517756016 L 654 288 L 643.8373251423758 283.790482243984"></path></g><g transform="translate(-358,-30) scale(1,1)"><path fill="none" stroke="#000000" d="M 643.8373251423759 292.209517756016 L 654 288 L 643.8373251423758 283.790482243984 L 643.8373251423759 292.209517756016" stroke-miterlimit="10"></path></g><g transform="translate(-358,-30) scale(1,1)"><g><path fill="none" stroke="none"></path><text fill="#000000" stroke="none" font-family="Arial" font-size="13px" font-style="normal" font-weight="normal" text-decoration="none" x="488.5" y="284.5">5 : CheckMap</text></g></g><g transform="translate(-358,-30) scale(1,1)"><rect fill="#ffffff" stroke="none" x="654" y="288" width="13" height="28"></rect></g><g transform="translate(-358,-30) scale(1,1)"><path fill="none" stroke="#000000" d="M 654 288 L 667 288 L 667 316 L 654 316 L 654 288 Z Z" stroke-miterlimit="10"></path></g><g transform="translate(-358,-30) scale(1,1)"><path fill="none" stroke="#000000" d="M 661 320 L 411 320" stroke-miterlimit="10"></path></g><g transform="translate(-358,-30) scale(1,1)"><path fill="#000000" stroke="none" d="M 421.16267485762415 315.790482243984 L 411 320 L 421.16267485762415 324.209517756016"></path></g><g transform="translate(-358,-30) scale(1,1)"><path fill="none" stroke="#000000" d="M 421.16267485762415 315.790482243984 L 411 320 L 421.16267485762415 324.209517756016 L 421.16267485762415 315.790482243984" stroke-miterlimit="10"></path></g><g transform="translate(-358,-30) scale(1,1)"><g><path fill="none" stroke="none"></path><text fill="#000000" stroke="none" font-family="Arial" font-size="13px" font-style="normal" font-weight="normal" text-decoration="none" x="503.5" y="336.5">6 : MapOK</text></g></g><g transform="translate(-358,-30) scale(1,1)"><rect fill="#ffffff" stroke="none" x="398" y="320" width="13" height="28"></rect></g><g transform="translate(-358,-30) scale(1,1)"><path fill="none" stroke="#000000" d="M 398 320 L 411 320 L 411 348 L 398 348 L 398 320 Z Z" stroke-miterlimit="10"></path></g><g transform="translate(-358,-30) scale(1,1)"><path fill="none" stroke="#000000" d="M 405 368 L 830 368" stroke-miterlimit="10"></path></g><g transform="translate(-358,-30) scale(1,1)"><path fill="#000000" stroke="none" d="M 819.8373251423759 372.209517756016 L 830 368 L 819.8373251423758 363.790482243984"></path></g><g transform="translate(-358,-30) scale(1,1)"><path fill="none" stroke="#000000" d="M 819.8373251423759 372.209517756016 L 830 368 L 819.8373251423758 363.790482243984 L 819.8373251423759 372.209517756016" stroke-miterlimit="10"></path></g><g transform="translate(-358,-30) scale(1,1)"><g><path fill="none" stroke="none"></path><text fill="#000000" stroke="none" font-family="Arial" font-size="13px" font-style="normal" font-weight="normal" text-decoration="none" x="574.5" y="364.5">7 : BuildHouse</text></g></g><g transform="translate(-358,-30) scale(1,1)"><rect fill="#ffffff" stroke="none" x="830" y="368" width="13" height="28"></rect></g><g transform="translate(-358,-30) scale(1,1)"><path fill="none" stroke="#000000" d="M 830 368 L 843 368 L 843 396 L 830 396 L 830 368 Z Z" stroke-miterlimit="10"></path></g><g transform="translate(-358,-30) scale(1,1)"><path fill="none" stroke="#000000" d="M 830 395 L 667 395" stroke-miterlimit="10"></path></g><g transform="translate(-358,-30) scale(1,1)"><path fill="#000000" stroke="none" d="M 677.1626748576241 390.790482243984 L 667 395 L 677.1626748576241 399.209517756016"></path></g><g transform="translate(-358,-30) scale(1,1)"><path fill="none" stroke="#000000" d="M 677.1626748576241 390.790482243984 L 667 395 L 677.1626748576241 399.209517756016 L 677.1626748576241 390.790482243984" stroke-miterlimit="10"></path></g><g transform="translate(-358,-30) scale(1,1)"><g><path fill="none" stroke="none"></path><text fill="#000000" stroke="none" font-family="Arial" font-size="13px" font-style="normal" font-weight="normal" text-decoration="none" x="707.5" y="411.5">8 : AddHouse</text></g></g><g transform="translate(-358,-30) scale(1,1)"><rect fill="#ffffff" stroke="none" x="654" y="395" width="13" height="28"></rect></g><g transform="translate(-358,-30) scale(1,1)"><path fill="none" stroke="#000000" d="M 654 395 L 667 395 L 667 423 L 654 423 L 654 395 Z Z" stroke-miterlimit="10"></path></g></g></svg>